<svg width="868" height="686" viewBox="0 0 868 686" fill="none" xmlns="http://www.w3.org/2000/svg">
<path d="M168.472 571.803L148.773 570.524C142.958 570.147 139.592 576.991 143.442 581.366C143.812 581.787 144.235 582.158 144.7 582.471L171.5 600.5L210.788 621.737C233.871 634.214 258.143 644.355 283.243 652.007C312.646 660.972 342.998 666.464 373.678 668.373L385.796 669.127C421.824 671.369 457.99 669.682 493.654 664.096L528.453 658.646C552.439 654.889 576.055 649.065 599.038 641.238L648.578 624.368C654.163 622.466 659.444 619.766 664.256 616.352L710.014 583.891C713.02 581.759 713.675 577.568 711.464 574.62C710.227 572.971 708.286 572 706.225 572H700.155C699.054 572 697.954 571.903 696.87 571.709L684.5 569.5C670.223 564.852 656.586 558.43 643.909 550.385L637 546C623.064 536.378 610.503 524.905 599.662 511.895L593.5 504.5L565.936 471.791C559.321 463.941 552.135 456.59 544.437 449.798C535.164 441.616 525.181 434.274 514.607 427.86L500 419C484.42 411.707 467.84 406.78 450.806 404.381L441 403H428.673C414.962 403 401.323 404.975 388.175 408.864C377.759 411.944 367.728 416.204 358.278 421.559L354.704 423.584C346.58 428.188 338.83 433.421 331.524 439.235L318 450L296 472L276 496.5L262.763 512.143C253.286 523.343 242.545 533.411 230.755 542.144L221.043 549.338C212.395 555.744 202.847 560.835 192.708 564.446L174.357 570.982C172.472 571.654 170.469 571.933 168.472 571.803Z" fill="white" stroke="#F2F5F4" stroke-width="5"/>
<path d="M42.666 386.241L27.8453 383.511C20.8315 382.219 18.065 373.649 22.9995 368.5L49.4995 333L79.9995 289L118.657 243.9C122.801 239.065 125.491 233.157 126.417 226.858C127.13 222.011 126.779 217.067 125.387 212.37L111.5 165.5L100.729 112.476C99.2464 105.177 98.4995 97.7479 98.4995 90.2999V75.855C98.4995 63.8726 101.953 52.1441 108.446 42.0734L111.048 38.037C118.677 26.2047 130.841 18.0362 144.681 15.4528C154.978 13.5306 165.618 14.8136 175.163 19.1286L215.621 37.4181C227.466 42.7726 238.393 49.9601 248.001 58.7161L261.001 70.5642C268.856 77.7234 278.488 82.6435 288.893 84.8111C301.919 87.5249 315.479 85.7859 327.398 79.873L345.222 71.0312C363.109 62.1583 382.969 58.0136 402.912 58.9919L490.333 63.2805C500.073 63.7583 509.717 65.4383 519.045 68.2823L571.155 84.1692C580.907 87.1424 591.504 84.4959 598.713 77.2868C600.232 75.7675 601.924 74.4308 603.753 73.304L670 32.5L693.337 20.3765C703.001 15.3562 714.325 14.6093 724.565 18.3168C732.935 21.3473 740.015 27.1522 744.627 34.7658L752.888 48.4038C763.285 65.5672 767.205 85.8816 763.94 105.681L754.969 160.09C753.993 166.005 752.252 171.768 749.789 177.233C741.948 194.63 741.654 214.497 748.977 232.119L751.18 237.42C752.724 241.135 754.539 244.732 756.609 248.182L777.016 282.194C785.317 296.029 795.004 308.983 805.927 320.856L832.475 349.713C834.475 351.886 836.062 354.405 837.158 357.147L841.367 367.669C845.741 378.605 837.688 390.5 825.91 390.5C822.394 390.5 818.967 389.386 816.123 387.319L723.5 320L693.462 294.468C667.826 272.677 634.734 261.684 601.155 263.802L536.552 267.878C512.385 269.403 492.646 287.76 489.374 311.753C488.147 320.753 484.531 329.26 478.903 336.389L475.642 340.519C464.686 354.397 446.381 360.202 429.429 355.174L422.223 353.037C408.151 348.863 398.5 335.933 398.5 321.255C398.5 314.575 396.481 308.05 392.708 302.536L377.892 280.881C374.308 275.644 370.147 270.826 365.486 266.519C345.135 247.714 316.865 240.067 289.81 246.05L262.106 252.175C243.243 256.346 225.457 264.407 209.886 275.843L145 323.5L55.2717 383.632C51.5708 386.112 47.0474 387.048 42.666 386.241Z" fill="#828A8D" stroke="#858992" stroke-width="5"/>
<path d="M236.009 553.796L190.817 571.873C184.001 574.599 176.728 576 169.387 576C155.587 576 142.245 571.054 131.779 562.06L83.9995 521L51.5013 491.996C42.704 484.145 38.1936 472.559 39.3669 460.826L40.0428 454.067C40.3403 451.092 41.5283 448.275 43.4516 445.986C47.877 440.717 48.1083 433.1 44.0106 427.573L30.7022 409.622C29.9033 408.545 29.2377 407.375 28.7197 406.137C24.5423 396.158 30.8476 384.908 41.5402 383.263L58.1046 380.715C63.2763 379.919 68.1465 377.773 72.2237 374.494L112 342.5L157.483 305.915C173.076 293.374 190.431 283.198 208.99 275.716L230.613 266.999C260.285 255.037 293.28 253.749 323.813 263.301C356.075 273.393 383.608 295.014 401 324L407.234 333.188C409.396 336.374 412.072 339.179 415.152 341.489L417.349 343.137C424.399 348.424 433.466 350.23 442.003 348.046C447.231 346.708 451.983 343.943 455.729 340.058L456.779 338.969C461.174 334.412 464.226 328.73 465.6 322.549L466.425 318.835C467.795 312.672 470.368 306.841 473.998 301.676L476.521 298.085C479.827 293.38 483.702 289.1 488.056 285.344L492.63 281.397C502.149 273.184 512.913 266.536 524.517 261.701C544.46 253.391 566.293 250.682 587.661 253.865L594.119 254.826C614.785 257.904 634.519 265.499 651.916 277.071L734.5 332L783.878 367.144C787.929 370.027 792.444 372.195 797.226 373.555L829.845 382.832C837.638 385.049 841.741 393.579 838.607 401.05C838.204 402.013 837.689 402.927 837.075 403.771L826 419L820.704 427.961C816.258 435.485 817.905 445.12 824.596 450.741C832.044 456.997 833.122 468.059 827.024 475.636L821.5 482.5L747.824 556.175C734.929 569.07 718.334 577.622 700.35 580.64C672.788 585.266 644.672 576.472 624.658 556.965L577.5 511L514.842 446.95C497.123 428.837 473.862 417.159 448.75 413.77C421.207 410.053 393.256 416.549 370.175 432.032L353.618 443.138C335.115 455.55 319.674 472.006 308.464 491.262C291.963 519.604 266.459 541.616 236.009 553.796Z" fill="#50585A" stroke="#4F585A" stroke-width="5"/>
<path d="M23.5328 400.555L17.1767 389.962C14.5598 385.601 14.244 380.234 16.3312 375.596C17.1037 373.88 18.1816 372.318 19.5126 370.987L27.4995 363L54.4995 332L84.9995 294L112 251L129.821 224.485C131.289 222.3 130.669 219.335 128.449 217.922C127.513 217.327 126.819 216.419 126.49 215.359L112.531 170.379C110.181 162.808 108.513 155.042 107.546 147.175L102.997 110.178C102.001 102.082 101.859 93.9032 102.572 85.7771L104.904 59.1841C105.931 47.4816 111.274 36.5794 119.893 28.5982C128.64 20.4992 140.122 16 152.042 16H160.783C171.451 16 181.977 18.4515 191.547 23.1651L210.5 32.5L248.444 57.3447C251.139 59.1092 253.625 61.1737 255.854 63.4987L279.733 88.4005C283.93 92.7777 290.959 92.6759 295.028 88.1788C296.317 86.7539 297.975 85.7119 299.817 85.1674L341 73C374.177 64.3737 408.378 60.3179 442.653 60.9449L454.667 61.1647C466.87 61.3879 479.037 62.5622 491.057 64.6769L499.352 66.1361C517.674 69.3593 535.387 75.3937 551.867 84.0257L567.179 92.0464C568.389 92.6803 569.664 93.1832 570.981 93.5465C578.542 95.6325 586.612 92.907 591.361 86.6635L604.629 69.2183C608.509 64.1174 613.305 59.7841 618.772 56.4402L653.012 35.4974C658.988 31.8419 665.32 28.8032 671.911 26.4282L697.108 17.3485C710.028 12.6924 724.349 14.0187 736.195 20.9682C748.103 27.9542 756.268 39.8941 758.459 53.5252L762.292 77.3733C763.427 84.4363 763.781 91.6028 763.348 98.7434L761.988 121.195C760.668 142.973 756.535 164.489 749.693 185.207L742.529 206.898C742.177 207.963 741.722 208.993 741.172 209.971C738.828 214.139 738.303 219.088 739.72 223.655L740.848 227.289C741.611 229.749 742.734 232.084 744.178 234.218L786 296L812.351 331.501C818.767 340.146 826.026 348.132 834.021 355.342L845.49 365.687C846.826 366.892 848.023 368.242 849.06 369.711L850.968 372.414C852.615 374.747 853.5 377.533 853.5 380.39C853.5 383.382 852.529 386.294 850.733 388.688L847.5 393L826.891 420.777C825.302 422.918 823.464 424.863 821.416 426.57L819.977 427.769C818.995 428.587 818.109 429.513 817.334 430.53L813.336 435.777C811.617 438.034 811.414 441.1 812.822 443.564C813.883 445.42 815.727 446.696 817.839 447.034L823.028 447.865C825.61 448.278 827.995 449.495 829.843 451.344L830.009 451.51C833.847 455.347 834.66 461.27 832 466C817.686 486.638 801.86 506.186 784.654 524.482L771 539L708.5 589.5L683.458 605.688C667.182 616.21 650.039 625.328 632.216 632.941C615.764 639.97 598.785 645.694 581.435 650.062L536 661.5L477.5 670.5L467.868 670.844C427.68 672.279 387.442 670.66 347.5 666C308.929 658.352 271.22 646.87 234.933 631.724L232 630.5C197.052 612.86 163.522 592.541 131.71 569.727L130 568.5C103.701 545.53 79.1039 520.682 56.4025 494.152L48.9995 485.5L39.6535 474.374C38.8858 473.46 38.0359 472.618 37.1145 471.859L33.4486 468.84C31.2647 467.042 29.9995 464.361 29.9995 461.532C29.9995 457.123 33.0426 453.298 37.3385 452.306L42.9995 451L53.6882 448.187C57.8134 447.102 59.7053 442.329 57.4446 438.712C57.1492 438.239 56.7926 437.808 56.3842 437.429L42.9995 425L26.8047 405.206C25.6028 403.737 24.5093 402.183 23.5328 400.555Z" stroke="#2F2F2F" stroke-width="29"/>
<ellipse cx="288" cy="369.5" rx="36" ry="39.5" fill="black"/>
<ellipse cx="576" cy="369.5" rx="36" ry="39.5" fill="black"/>
<ellipse cx="214.5" cy="452" rx="40.5" ry="30" fill="#828A8D"/>
<ellipse cx="650.5" cy="452" rx="40.5" ry="30" fill="#828A8D"/>
<path d="M179.774 84.8058L177.812 83.8951C172.966 81.6454 167.801 80.1626 162.5 79.5H159.498C158.838 79.5 158.185 79.6259 157.573 79.8708C156.55 80.2796 155.685 81.0032 155.102 81.9367L154.5 82.8984C153.841 83.9537 153.417 85.1388 153.257 86.373L151.196 102.267C150.401 108.403 150.302 114.609 150.9 120.766L153.5 147.5L159.5 173.5L161.214 178.986C161.712 180.582 162.884 181.879 164.42 182.538L164.498 182.571C165.159 182.854 165.87 183 166.59 183C168.121 183 169.578 182.339 170.586 181.186L176 175L221.847 132.079C222.611 131.363 223.273 130.544 223.812 129.646L224.215 128.974C225.365 127.057 225.779 124.787 225.379 122.588C225.129 121.214 224.57 119.915 223.745 118.789L221.406 115.6C220.14 113.873 218.668 112.307 217.023 110.936L204.5 100.5L188.818 89.9151C185.944 87.9748 182.919 86.2663 179.774 84.8058Z" fill="#535758" stroke="#535758" stroke-width="5"/>
<path d="M687.225 84.8058L689.187 83.8951C694.033 81.6454 699.198 80.1626 704.5 79.5H707.501C708.161 79.5 708.814 79.6259 709.427 79.8708C710.449 80.2796 711.314 81.0032 711.897 81.9367L712.499 82.8984C713.158 83.9537 713.582 85.1388 713.742 86.373L715.803 102.267C716.598 108.403 716.697 114.609 716.099 120.766L713.5 147.5L707.5 173.5L705.785 178.986C705.287 180.582 704.115 181.879 702.579 182.538L702.501 182.571C701.84 182.854 701.129 183 700.409 183C698.878 183 697.421 182.339 696.413 181.186L691 175L645.152 132.079C644.388 131.363 643.726 130.544 643.187 129.646L642.784 128.974C641.634 127.057 641.22 124.787 641.62 122.588C641.87 121.214 642.429 119.915 643.254 118.789L645.593 115.6C646.859 113.873 648.331 112.307 649.976 110.936L662.5 100.5L678.181 89.9151C681.055 87.9748 684.08 86.2663 687.225 84.8058Z" fill="#535758" stroke="#535758" stroke-width="5"/>
<path d="M34.2883 377.101L31.0635 377.247C23.8123 377.577 19.723 385.722 23.79 391.734C25.2021 393.821 27.4014 395.245 29.8838 395.68L38.7886 397.238C43.5289 398.068 48.3982 397.767 53.0005 396.361L66.8702 392.123C76.8816 389.064 86.2916 384.304 94.6877 378.051L105.5 370L127 352L166 318.5L166.792 317.866C186.145 302.384 207.799 290.024 230.972 281.235L237.567 278.733C248.493 274.589 259.818 271.585 271.361 269.769L277.299 268.835C291.341 266.626 305.647 266.691 319.669 269.028L325.9 270.067C343.362 272.977 359.833 280.161 373.846 290.978C378.606 294.653 383.05 298.721 387.129 303.141L393 309.5L398.271 316.09C399.418 317.523 401.681 316.205 401 314.5L392.494 287.64C391.832 285.55 391.332 283.412 390.999 281.244C390.012 274.832 387.577 268.73 383.879 263.4L381.082 259.37C375.438 251.234 367.98 244.522 359.299 239.761L353.722 236.702C345.621 232.26 336.89 229.078 327.831 227.266L325.316 226.763C319.449 225.59 313.493 224.908 307.512 224.723L305.358 224.657C291.209 224.222 277.081 226.04 263.503 230.044L245 235.5C215.788 247.118 188.196 262.453 162.905 281.126L147.5 292.5L110 326.5L80.764 351.765C73.2896 358.225 64.9655 363.63 56.0239 367.829L38.503 376.059C37.1804 376.68 35.7481 377.034 34.2883 377.101Z" fill="white" stroke="white" stroke-width="5"/>
<path d="M831.211 377.101L834.436 377.247C841.687 377.577 845.776 385.722 841.709 391.734C840.297 393.821 838.098 395.245 835.615 395.68L826.71 397.238C821.97 398.068 817.101 397.767 812.499 396.361L798.629 392.123C788.617 389.064 779.207 384.304 770.811 378.051L760 370L738.5 352L699.5 318.5L698.707 317.866C679.354 302.384 657.7 290.024 634.527 281.235L627.932 278.733C617.006 274.589 605.681 271.585 594.138 269.769L588.2 268.835C574.158 266.626 559.852 266.691 545.83 269.028L539.599 270.067C522.137 272.977 505.666 280.161 491.653 290.978L490.51 291.86C486.51 294.948 482.777 298.366 479.349 302.079L472.745 309.234C472.582 309.411 472.439 309.605 472.319 309.813L465.789 321.155C465.247 322.096 463.805 321.568 464 320.5L474 284.5C475.316 275.946 478.564 267.804 483.498 260.694L484.417 259.37C490.061 251.234 497.519 244.522 506.2 239.761L511.777 236.702C519.878 232.26 528.609 229.078 537.668 227.266L540.183 226.763C546.05 225.59 552.006 224.908 557.987 224.723L560.141 224.657C574.29 224.222 588.418 226.04 601.996 230.044L620.5 235.5C649.711 247.118 677.303 262.453 702.594 281.126L718 292.5L755.5 326.5L784.735 351.765C792.209 358.225 800.534 363.63 809.475 367.829L826.996 376.059C828.319 376.68 829.751 377.034 831.211 377.101Z" fill="white" stroke="white" stroke-width="5"/>
<path d="M383.629 410.765L349.5 451.5L346.233 454.866C341.286 459.962 344.897 468.5 352 468.5H488.936C489.644 468.5 490.351 468.55 491.052 468.65L515.2 472.1C521.702 473.029 525.644 465.145 521 460.5L483.297 410.359C476.155 400.862 470.752 390.174 467.337 378.792C462.841 363.804 461.901 347.974 464.592 332.559L466 324.5C467.977 317.578 471.393 311.151 476.023 305.638L479.5 301.5L481.422 298.571C484.454 293.95 480.211 288.017 474.858 289.394C473.345 289.783 472.041 290.742 471.219 292.071L458.927 311.956C456.673 315.601 453.596 318.667 449.942 320.906C443.59 324.8 435.925 325.937 428.716 324.056L425.545 323.229C419.936 321.766 414.776 318.935 410.528 314.99L403.053 308.049C398.433 303.76 395.033 298.323 393.197 292.292L388.05 275.38C386.535 270.402 381.943 267 376.74 267C366.11 267 360.88 279.935 368.523 287.323L377.5 296L393.945 314.539C401.153 322.664 405.792 332.742 407.276 343.502C408.41 351.727 407.666 360.102 405.1 367.999L401.953 377.681C398.021 389.781 391.8 401.012 383.629 410.765Z" fill="white" stroke="white" stroke-width="5"/>
<path d="M393.037 465.809L397.287 470.515C402.071 475.811 407.592 480.39 413.681 484.111L421.681 489C423.2 491.293 424.094 493.944 424.273 496.689L425.127 509.794C425.371 513.525 424.573 517.249 422.824 520.554C421.619 522.83 419.989 524.855 418.023 526.519L417.492 526.968C415.518 528.639 413.225 529.892 410.752 530.653C408.927 531.214 407.029 531.5 405.119 531.5H402.369C398.48 531.5 394.614 530.894 390.911 529.704L390.641 529.617C385.276 527.892 380.346 525.033 376.184 521.234L374.464 519.664C372.16 517.559 370.057 515.243 368.184 512.747L366.5 510.5L360.912 502.763C360.309 501.929 359.551 501.22 358.679 500.674L358.072 500.295C356.741 499.463 355.142 499.171 353.603 499.479C351.942 499.812 350.49 500.815 349.592 502.252L349.322 502.685C348.78 503.552 348.425 504.523 348.28 505.535L348.076 506.966C347.699 509.602 348.073 512.291 349.155 514.724L350.98 518.83C352.642 522.57 355.056 525.927 358.073 528.692L367 536.876C369.985 539.612 373.337 541.919 376.959 543.73C382.586 546.543 388.755 548.105 395.043 548.308L401 548.5H404.852C409.915 548.5 414.943 547.658 419.729 546.007L425.656 543.963C426.545 543.657 427.377 543.203 428.117 542.622L433.059 538.739C433.596 538.317 434.363 538.363 434.845 538.845C434.947 538.948 435.066 539.033 435.195 539.098L441 542C445.985 544.326 451.209 546.102 456.579 547.295L457.5 547.5L461.011 547.87C464.987 548.288 469.001 548.2 472.955 547.607C475.646 547.203 478.298 546.567 480.88 545.707L484.714 544.429C489.542 542.819 494.094 540.477 498.21 537.483C501.392 535.169 504.287 532.485 506.835 529.488L511.5 524L514.137 520.164C516.001 517.452 517 514.238 517 510.947V510.35C517 509.124 516.816 507.904 516.455 506.732L515.92 504.993C515.33 503.073 514.019 501.455 512.262 500.479L512.013 500.341C511.021 499.789 509.904 499.5 508.768 499.5C506.995 499.5 505.295 500.204 504.042 501.457L503.227 502.273C502.415 503.084 501.758 504.036 501.287 505.082L499.338 509.414C498.117 512.127 496.559 514.675 494.701 516.999L492.507 519.741C487.969 525.413 481.645 529.381 474.564 530.999L473.982 531.132C470.037 532.034 465.947 532.109 461.971 531.352L461.817 531.322C458.956 530.777 456.196 529.794 453.635 528.407L450.976 526.966C447.418 525.039 444.566 522.028 442.833 518.371C441.626 515.822 441 513.037 441 510.216V508V490.592C441 488.954 441.744 487.404 443.024 486.381C443.34 486.128 443.684 485.911 444.048 485.735L458 479L463.578 475.487C468.778 472.213 473.087 467.703 476.12 462.359L478.895 457.47C480.914 453.912 481.773 449.813 481.352 445.744C480.807 440.473 478.156 435.645 474.001 432.355L472.404 431.091C469.827 429.051 466.867 427.551 463.698 426.68L456.135 424.6C451.064 423.205 445.84 422.451 440.582 422.353L427.762 422.116C423.598 422.039 419.438 422.395 415.348 423.178L404.902 425.178C400.396 426.041 396.233 428.183 392.91 431.347L392.582 431.66C389.272 434.811 387.003 438.898 386.078 443.373C385.055 448.313 385.727 453.454 387.983 457.967L388.807 459.614C389.93 461.861 391.353 463.945 393.037 465.809Z" fill="black"/>
<path d="M422.5 489.5L421.681 489M421.681 489L413.681 484.111C407.592 480.39 402.071 475.811 397.287 470.515L393.037 465.809C391.353 463.945 389.93 461.861 388.807 459.614L387.983 457.967C385.727 453.454 385.055 448.313 386.078 443.373V443.373C387.003 438.898 389.272 434.811 392.582 431.66L392.91 431.347C396.233 428.183 400.396 426.041 404.902 425.178L415.348 423.178C419.438 422.395 423.598 422.039 427.762 422.116L440.582 422.353C445.84 422.451 451.064 423.205 456.135 424.6L463.698 426.68C466.867 427.551 469.827 429.051 472.404 431.091L474.001 432.355C478.156 435.645 480.807 440.473 481.352 445.744V445.744C481.773 449.813 480.914 453.912 478.895 457.469L476.12 462.359C473.087 467.703 468.778 472.213 463.578 475.487L458 479L444.048 485.735C443.684 485.911 443.34 486.128 443.024 486.381V486.381C441.744 487.404 441 488.954 441 490.592V508V510.216C441 513.037 441.626 515.822 442.833 518.371V518.371C444.566 522.028 447.418 525.039 450.976 526.966L453.635 528.407C456.196 529.794 458.956 530.777 461.817 531.322L461.971 531.352C465.947 532.109 470.037 532.034 473.982 531.132L474.564 530.999C481.645 529.381 487.969 525.413 492.507 519.741L494.701 516.999C496.559 514.675 498.117 512.127 499.338 509.414L501.287 505.082C501.758 504.036 502.415 503.084 503.227 502.273L504.042 501.457C505.295 500.204 506.995 499.5 508.768 499.5V499.5C509.904 499.5 511.021 499.789 512.013 500.341L512.262 500.479C514.019 501.455 515.33 503.072 515.92 504.993L516.455 506.732C516.816 507.904 517 509.124 517 510.35V510.947C517 514.238 516.001 517.452 514.137 520.164L511.5 524L506.835 529.488C504.287 532.485 501.392 535.169 498.21 537.483V537.483C494.094 540.476 489.542 542.819 484.714 544.429L480.88 545.707C478.298 546.567 475.646 547.203 472.955 547.607V547.607C469.001 548.2 464.987 548.288 461.011 547.87L457.5 547.5L456.579 547.295C451.209 546.102 445.985 544.326 441 542V542L435.195 539.098C435.066 539.033 434.947 538.948 434.845 538.845V538.845C434.363 538.363 433.596 538.317 433.059 538.739L428.117 542.622C427.377 543.203 426.545 543.657 425.656 543.963L419.729 546.007C414.943 547.658 409.915 548.5 404.852 548.5H401L395.043 548.308C388.755 548.105 382.586 546.543 376.959 543.73V543.73C373.337 541.919 369.985 539.612 367 536.876L358.073 528.692C355.056 525.927 352.642 522.57 350.98 518.83L349.155 514.724C348.073 512.291 347.699 509.602 348.076 506.966L348.28 505.535C348.425 504.523 348.78 503.552 349.322 502.685L349.592 502.252C350.49 500.815 351.942 499.812 353.603 499.479V499.479C355.142 499.171 356.741 499.463 358.072 500.295L358.679 500.674C359.551 501.22 360.309 501.929 360.912 502.763L366.5 510.5L368.184 512.747C370.057 515.243 372.16 517.559 374.464 519.664L376.184 521.234C380.346 525.033 385.276 527.892 390.641 529.617L390.911 529.704C394.614 530.894 398.48 531.5 402.369 531.5H405.119C407.029 531.5 408.927 531.214 410.752 530.653V530.653C413.225 529.892 415.518 528.639 417.492 526.968L418.023 526.519C419.989 524.855 421.619 522.83 422.824 520.554V520.554C424.573 517.249 425.371 513.525 425.127 509.794L424.273 496.689C424.094 493.944 423.2 491.293 421.681 489V489Z" stroke="black" stroke-width="5"/>
</svg>
